<mxfile host="app.diagrams.net" modified="2022-02-28T05:42:22.350Z" agent="5.0 (Windows NT 10.0; WOW64) AppleWebKit/537.36 (KHTML, like Gecko) Chrome/86.0.4240.198 Safari/537.36" etag="uaFW4spmek367tJQh_LX" version="16.6.4" type="github">
  <diagram id="C5RBs43oDa-KdzZeNtuy" name="Page-1">
    <mxGraphModel dx="1692" dy="433" grid="1" gridSize="10" guides="1" tooltips="1" connect="1" arrows="1" fold="1" page="1" pageScale="1" pageWidth="827" pageHeight="1169" math="0" shadow="0">
      <root>
        <mxCell id="WIyWlLk6GJQsqaUBKTNV-0" />
        <mxCell id="WIyWlLk6GJQsqaUBKTNV-1" parent="WIyWlLk6GJQsqaUBKTNV-0" />
        <mxCell id="fKuXVuJbzBg1nl2zYU1o-0" value="NfcService" style="swimlane;fontStyle=1;align=center;verticalAlign=top;childLayout=stackLayout;horizontal=1;startSize=26;horizontalStack=0;resizeParent=1;resizeParentMax=0;resizeLast=0;collapsible=1;marginBottom=0;" parent="WIyWlLk6GJQsqaUBKTNV-1" vertex="1">
          <mxGeometry x="356" y="370" width="160" height="86" as="geometry" />
        </mxCell>
        <mxCell id="fKuXVuJbzBg1nl2zYU1o-1" value="+ field: type" style="text;strokeColor=none;fillColor=none;align=left;verticalAlign=top;spacingLeft=4;spacingRight=4;overflow=hidden;rotatable=0;points=[[0,0.5],[1,0.5]];portConstraint=eastwest;" parent="fKuXVuJbzBg1nl2zYU1o-0" vertex="1">
          <mxGeometry y="26" width="160" height="26" as="geometry" />
        </mxCell>
        <mxCell id="fKuXVuJbzBg1nl2zYU1o-2" value="" style="line;strokeWidth=1;fillColor=none;align=left;verticalAlign=middle;spacingTop=-1;spacingLeft=3;spacingRight=3;rotatable=0;labelPosition=right;points=[];portConstraint=eastwest;" parent="fKuXVuJbzBg1nl2zYU1o-0" vertex="1">
          <mxGeometry y="52" width="160" height="8" as="geometry" />
        </mxCell>
        <mxCell id="fKuXVuJbzBg1nl2zYU1o-3" value="+ method(type): type" style="text;strokeColor=none;fillColor=none;align=left;verticalAlign=top;spacingLeft=4;spacingRight=4;overflow=hidden;rotatable=0;points=[[0,0.5],[1,0.5]];portConstraint=eastwest;" parent="fKuXVuJbzBg1nl2zYU1o-0" vertex="1">
          <mxGeometry y="60" width="160" height="26" as="geometry" />
        </mxCell>
        <mxCell id="fKuXVuJbzBg1nl2zYU1o-4" value="«interface»&lt;br&gt;&lt;b&gt;DeviceHostListener&lt;br&gt;&lt;/b&gt;" style="html=1;" parent="WIyWlLk6GJQsqaUBKTNV-1" vertex="1">
          <mxGeometry x="381" y="220" width="110" height="50" as="geometry" />
        </mxCell>
        <mxCell id="fKuXVuJbzBg1nl2zYU1o-5" value="" style="endArrow=block;dashed=1;endFill=0;endSize=12;html=1;rounded=0;entryX=0.5;entryY=1;entryDx=0;entryDy=0;exitX=0.5;exitY=0;exitDx=0;exitDy=0;" parent="WIyWlLk6GJQsqaUBKTNV-1" source="fKuXVuJbzBg1nl2zYU1o-0" target="fKuXVuJbzBg1nl2zYU1o-4" edge="1">
          <mxGeometry width="160" relative="1" as="geometry">
            <mxPoint x="366" y="270" as="sourcePoint" />
            <mxPoint x="526" y="270" as="targetPoint" />
          </mxGeometry>
        </mxCell>
        <mxCell id="fKuXVuJbzBg1nl2zYU1o-6" value="implements" style="text;html=1;resizable=0;autosize=1;align=center;verticalAlign=middle;points=[];fillColor=none;strokeColor=none;rounded=0;" parent="WIyWlLk6GJQsqaUBKTNV-1" vertex="1">
          <mxGeometry x="430" y="300" width="80" height="20" as="geometry" />
        </mxCell>
        <mxCell id="fKuXVuJbzBg1nl2zYU1o-7" value="«interface»&lt;br&gt;&lt;b&gt;DeviceHost&lt;/b&gt;" style="html=1;" parent="WIyWlLk6GJQsqaUBKTNV-1" vertex="1">
          <mxGeometry x="205" y="80" width="110" height="50" as="geometry" />
        </mxCell>
        <mxCell id="fKuXVuJbzBg1nl2zYU1o-9" value="被包含" style="text;html=1;resizable=0;autosize=1;align=center;verticalAlign=middle;points=[];fillColor=none;strokeColor=none;rounded=0;" parent="WIyWlLk6GJQsqaUBKTNV-1" vertex="1">
          <mxGeometry x="295" y="160" width="50" height="20" as="geometry" />
        </mxCell>
        <mxCell id="fKuXVuJbzBg1nl2zYU1o-10" value="NativeManager" style="swimlane;fontStyle=1;align=center;verticalAlign=top;childLayout=stackLayout;horizontal=1;startSize=26;horizontalStack=0;resizeParent=1;resizeParentMax=0;resizeLast=0;collapsible=1;marginBottom=0;" parent="WIyWlLk6GJQsqaUBKTNV-1" vertex="1">
          <mxGeometry x="-20" y="62" width="160" height="86" as="geometry" />
        </mxCell>
        <mxCell id="fKuXVuJbzBg1nl2zYU1o-11" value="+ field: type" style="text;strokeColor=none;fillColor=none;align=left;verticalAlign=top;spacingLeft=4;spacingRight=4;overflow=hidden;rotatable=0;points=[[0,0.5],[1,0.5]];portConstraint=eastwest;" parent="fKuXVuJbzBg1nl2zYU1o-10" vertex="1">
          <mxGeometry y="26" width="160" height="26" as="geometry" />
        </mxCell>
        <mxCell id="fKuXVuJbzBg1nl2zYU1o-12" value="" style="line;strokeWidth=1;fillColor=none;align=left;verticalAlign=middle;spacingTop=-1;spacingLeft=3;spacingRight=3;rotatable=0;labelPosition=right;points=[];portConstraint=eastwest;" parent="fKuXVuJbzBg1nl2zYU1o-10" vertex="1">
          <mxGeometry y="52" width="160" height="8" as="geometry" />
        </mxCell>
        <mxCell id="fKuXVuJbzBg1nl2zYU1o-13" value="+ method(type): type" style="text;strokeColor=none;fillColor=none;align=left;verticalAlign=top;spacingLeft=4;spacingRight=4;overflow=hidden;rotatable=0;points=[[0,0.5],[1,0.5]];portConstraint=eastwest;" parent="fKuXVuJbzBg1nl2zYU1o-10" vertex="1">
          <mxGeometry y="60" width="160" height="26" as="geometry" />
        </mxCell>
        <mxCell id="fKuXVuJbzBg1nl2zYU1o-15" value="" style="endArrow=block;dashed=1;endFill=0;endSize=12;html=1;rounded=0;entryX=0;entryY=0.5;entryDx=0;entryDy=0;exitX=1;exitY=0.5;exitDx=0;exitDy=0;" parent="WIyWlLk6GJQsqaUBKTNV-1" source="fKuXVuJbzBg1nl2zYU1o-11" target="fKuXVuJbzBg1nl2zYU1o-7" edge="1">
          <mxGeometry width="160" relative="1" as="geometry">
            <mxPoint x="20" y="310" as="sourcePoint" />
            <mxPoint x="180" y="310" as="targetPoint" />
          </mxGeometry>
        </mxCell>
        <mxCell id="hsuY-6eP_JaVXZlSWs8Y-0" value="" style="endArrow=diamondThin;endFill=0;endSize=24;html=1;rounded=0;entryX=0.5;entryY=1;entryDx=0;entryDy=0;exitX=0;exitY=0;exitDx=0;exitDy=0;" edge="1" parent="WIyWlLk6GJQsqaUBKTNV-1" source="fKuXVuJbzBg1nl2zYU1o-4" target="fKuXVuJbzBg1nl2zYU1o-7">
          <mxGeometry width="160" relative="1" as="geometry">
            <mxPoint x="220" y="250" as="sourcePoint" />
            <mxPoint x="380" y="250" as="targetPoint" />
          </mxGeometry>
        </mxCell>
        <mxCell id="hsuY-6eP_JaVXZlSWs8Y-1" value="TagService" style="swimlane;fontStyle=1;align=center;verticalAlign=top;childLayout=stackLayout;horizontal=1;startSize=26;horizontalStack=0;resizeParent=1;resizeParentMax=0;resizeLast=0;collapsible=1;marginBottom=0;" vertex="1" parent="WIyWlLk6GJQsqaUBKTNV-1">
          <mxGeometry x="476" y="510" width="160" height="86" as="geometry" />
        </mxCell>
        <mxCell id="hsuY-6eP_JaVXZlSWs8Y-2" value="+ field: type" style="text;strokeColor=none;fillColor=none;align=left;verticalAlign=top;spacingLeft=4;spacingRight=4;overflow=hidden;rotatable=0;points=[[0,0.5],[1,0.5]];portConstraint=eastwest;" vertex="1" parent="hsuY-6eP_JaVXZlSWs8Y-1">
          <mxGeometry y="26" width="160" height="26" as="geometry" />
        </mxCell>
        <mxCell id="hsuY-6eP_JaVXZlSWs8Y-3" value="" style="line;strokeWidth=1;fillColor=none;align=left;verticalAlign=middle;spacingTop=-1;spacingLeft=3;spacingRight=3;rotatable=0;labelPosition=right;points=[];portConstraint=eastwest;" vertex="1" parent="hsuY-6eP_JaVXZlSWs8Y-1">
          <mxGeometry y="52" width="160" height="8" as="geometry" />
        </mxCell>
        <mxCell id="hsuY-6eP_JaVXZlSWs8Y-4" value="+ method(type): type" style="text;strokeColor=none;fillColor=none;align=left;verticalAlign=top;spacingLeft=4;spacingRight=4;overflow=hidden;rotatable=0;points=[[0,0.5],[1,0.5]];portConstraint=eastwest;" vertex="1" parent="hsuY-6eP_JaVXZlSWs8Y-1">
          <mxGeometry y="60" width="160" height="26" as="geometry" />
        </mxCell>
        <mxCell id="hsuY-6eP_JaVXZlSWs8Y-5" value="" style="endArrow=diamondThin;endFill=1;endSize=24;html=1;rounded=0;exitX=0.25;exitY=0;exitDx=0;exitDy=0;entryX=0.489;entryY=0.985;entryDx=0;entryDy=0;entryPerimeter=0;" edge="1" parent="WIyWlLk6GJQsqaUBKTNV-1" source="hsuY-6eP_JaVXZlSWs8Y-1" target="fKuXVuJbzBg1nl2zYU1o-3">
          <mxGeometry width="160" relative="1" as="geometry">
            <mxPoint x="366" y="510" as="sourcePoint" />
            <mxPoint x="526" y="510" as="targetPoint" />
          </mxGeometry>
        </mxCell>
        <mxCell id="hsuY-6eP_JaVXZlSWs8Y-6" value="被包含" style="text;html=1;resizable=0;autosize=1;align=center;verticalAlign=middle;points=[];fillColor=none;strokeColor=none;rounded=0;" vertex="1" parent="WIyWlLk6GJQsqaUBKTNV-1">
          <mxGeometry x="486" y="470" width="50" height="20" as="geometry" />
        </mxCell>
        <mxCell id="hsuY-6eP_JaVXZlSWs8Y-7" value="NfcAdapterService" style="swimlane;fontStyle=1;align=center;verticalAlign=top;childLayout=stackLayout;horizontal=1;startSize=26;horizontalStack=0;resizeParent=1;resizeParentMax=0;resizeLast=0;collapsible=1;marginBottom=0;" vertex="1" parent="WIyWlLk6GJQsqaUBKTNV-1">
          <mxGeometry x="241" y="510" width="160" height="86" as="geometry" />
        </mxCell>
        <mxCell id="hsuY-6eP_JaVXZlSWs8Y-8" value="+ field: type" style="text;strokeColor=none;fillColor=none;align=left;verticalAlign=top;spacingLeft=4;spacingRight=4;overflow=hidden;rotatable=0;points=[[0,0.5],[1,0.5]];portConstraint=eastwest;" vertex="1" parent="hsuY-6eP_JaVXZlSWs8Y-7">
          <mxGeometry y="26" width="160" height="26" as="geometry" />
        </mxCell>
        <mxCell id="hsuY-6eP_JaVXZlSWs8Y-9" value="" style="line;strokeWidth=1;fillColor=none;align=left;verticalAlign=middle;spacingTop=-1;spacingLeft=3;spacingRight=3;rotatable=0;labelPosition=right;points=[];portConstraint=eastwest;" vertex="1" parent="hsuY-6eP_JaVXZlSWs8Y-7">
          <mxGeometry y="52" width="160" height="8" as="geometry" />
        </mxCell>
        <mxCell id="hsuY-6eP_JaVXZlSWs8Y-10" value="+ method(type): type" style="text;strokeColor=none;fillColor=none;align=left;verticalAlign=top;spacingLeft=4;spacingRight=4;overflow=hidden;rotatable=0;points=[[0,0.5],[1,0.5]];portConstraint=eastwest;" vertex="1" parent="hsuY-6eP_JaVXZlSWs8Y-7">
          <mxGeometry y="60" width="160" height="26" as="geometry" />
        </mxCell>
        <mxCell id="hsuY-6eP_JaVXZlSWs8Y-11" value="" style="endArrow=diamondThin;endFill=1;endSize=24;html=1;rounded=0;exitX=0.75;exitY=0;exitDx=0;exitDy=0;entryX=0.486;entryY=1.006;entryDx=0;entryDy=0;entryPerimeter=0;" edge="1" parent="WIyWlLk6GJQsqaUBKTNV-1" source="hsuY-6eP_JaVXZlSWs8Y-7" target="fKuXVuJbzBg1nl2zYU1o-3">
          <mxGeometry width="160" relative="1" as="geometry">
            <mxPoint x="156" y="460" as="sourcePoint" />
            <mxPoint x="436" y="450" as="targetPoint" />
          </mxGeometry>
        </mxCell>
        <mxCell id="hsuY-6eP_JaVXZlSWs8Y-12" value="«interface»&lt;br&gt;&lt;b&gt;TagEndpoint&lt;/b&gt;" style="html=1;" vertex="1" parent="WIyWlLk6GJQsqaUBKTNV-1">
          <mxGeometry x="16" y="220" width="110" height="50" as="geometry" />
        </mxCell>
        <mxCell id="hsuY-6eP_JaVXZlSWs8Y-13" value="" style="endArrow=diamondThin;endFill=0;endSize=24;html=1;rounded=0;exitX=0.75;exitY=0;exitDx=0;exitDy=0;" edge="1" parent="WIyWlLk6GJQsqaUBKTNV-1" source="hsuY-6eP_JaVXZlSWs8Y-12">
          <mxGeometry width="160" relative="1" as="geometry">
            <mxPoint x="90" y="230" as="sourcePoint" />
            <mxPoint x="260" y="130" as="targetPoint" />
          </mxGeometry>
        </mxCell>
        <mxCell id="hsuY-6eP_JaVXZlSWs8Y-14" value="«interface»&lt;br&gt;&lt;b&gt;NfcDepEndpoint&lt;/b&gt;" style="html=1;" vertex="1" parent="WIyWlLk6GJQsqaUBKTNV-1">
          <mxGeometry x="205" y="220" width="110" height="50" as="geometry" />
        </mxCell>
        <mxCell id="hsuY-6eP_JaVXZlSWs8Y-15" value="" style="endArrow=diamondThin;endFill=0;endSize=24;html=1;rounded=0;exitX=0.5;exitY=0;exitDx=0;exitDy=0;" edge="1" parent="WIyWlLk6GJQsqaUBKTNV-1" source="hsuY-6eP_JaVXZlSWs8Y-14">
          <mxGeometry width="160" relative="1" as="geometry">
            <mxPoint x="200" y="200" as="sourcePoint" />
            <mxPoint x="260" y="130" as="targetPoint" />
          </mxGeometry>
        </mxCell>
      </root>
    </mxGraphModel>
  </diagram>
</mxfile>
